<svg viewBox="0 0 512 512" xmlns="http://www.w3.org/2000/svg" fill-rule="evenodd" clip-rule="evenodd" stroke-linejoin="round" stroke-miterlimit="2"><path d="M40.066 380.724c2.198 4.396 5.494 7.693 9.89 9.89l193.406 112.088c7.692 4.396 17.582 4.396 25.275 0l193.406-112.088c7.692-4.395 13.187-13.186 13.187-21.978V144.461c0-8.791-4.396-17.582-13.187-21.978L269.736 9.297c-7.693-4.396-17.583-4.396-25.275 0-7.692 4.395-194.505 112.087-194.505 112.087-7.692 4.396-13.187 13.187-13.187 21.978v224.175c0 4.396 1.099 8.792 3.297 13.187" fill="#009639" fill-rule="nonzero"/><path d="M193.912 341.164c0 13.187-10.99 25.275-25.275 25.275-14.286 0-25.275-10.99-25.275-25.275V169.736c0-13.187 12.088-24.176 28.572-24.176 13.186 0 25.274 5.494 34.066 15.385l7.692 8.79L318.087 295.01V170.835c0-13.187 10.99-25.275 25.275-25.275 14.286 0 25.275 10.989 25.275 25.275v171.428c0 13.187-12.088 24.176-28.572 24.176-13.187 0-25.275-5.495-34.066-15.385L193.912 216.988v124.176z" fill="#fff" fill-rule="nonzero"/></svg>