<svg xmlns="http://www.w3.org/2000/svg" width="323" height="321" viewBox="0 0 323 321" version="1.1"><path d="M 172.706 101.627 C 172.318 102.015, 171.994 118.346, 171.987 137.917 L 171.974 173.500 164.737 178.141 C 152.324 186.101, 152.601 186.060, 152.095 180 C 151.935 178.075, 150.226 171.100, 148.299 164.500 C 142.281 143.897, 142.024 142.688, 142.012 134.968 C 142.005 130.825, 142.699 124.975, 143.554 121.968 C 144.409 118.961, 145.342 115.593, 145.626 114.484 C 146.040 112.870, 145.227 112.023, 141.545 110.234 C 139.016 109.005, 136.380 108, 135.688 108 C 134.996 108, 132.946 111.007, 131.134 114.683 C 126.697 123.680, 116.144 140.468, 107.877 151.680 C 99.780 162.661, 85.264 177.917, 68.977 192.562 L 57.055 203.282 60.184 207.232 C 61.905 209.405, 63.895 211.406, 64.607 211.680 C 65.320 211.953, 67.524 210.939, 69.506 209.427 L 73.110 206.678 76.267 210.507 C 92.557 230.270, 116.220 235.729, 133.782 223.774 C 138.890 220.297, 145.316 212.425, 148.744 205.444 C 150.445 201.980, 152.213 199.951, 154.361 199.001 C 156.085 198.237, 160.467 195.900, 164.098 193.807 C 167.729 191.713, 170.983 190, 171.328 190 C 171.674 190, 172.079 198.662, 172.228 209.250 L 172.500 228.500 180 228.500 L 187.500 228.500 187.768 203.046 C 188.025 178.539, 188.116 177.506, 190.192 175.296 C 191.378 174.033, 192.696 173, 193.120 173 C 193.545 173, 203.870 184.588, 216.064 198.750 C 228.259 212.912, 239.333 225.512, 240.674 226.750 C 242.843 228.752, 244.151 229, 252.556 229 C 258.504 229, 262 228.610, 262 227.947 C 262 227.367, 249.828 213.450, 234.950 197.018 C 220.073 180.587, 206.990 165.986, 205.878 164.572 L 203.855 162 206.177 159.118 C 207.455 157.532, 213.647 150.670, 219.938 143.868 C 251.116 110.156, 258 102.516, 258 101.629 C 258 101.283, 254.004 101, 249.120 101 L 240.240 101 231.036 111.512 C 225.975 117.293, 221.304 122.581, 220.656 123.262 C 220.009 123.943, 214.570 130.125, 208.569 137 C 202.569 143.875, 195.599 151.655, 193.080 154.289 L 188.500 159.079 188 130.289 L 187.500 101.500 180.456 101.210 C 176.582 101.051, 173.095 101.239, 172.706 101.627 M 121.883 154.750 C 114.339 165.144, 105.238 175.550, 94.121 186.493 C 89.654 190.889, 86 195.009, 86 195.649 C 86 199.226, 104.689 201.255, 116.201 198.929 C 122.304 197.696, 135.788 193.420, 138 192.017 C 140.257 190.585, 139.598 181.050, 136.547 171 C 135.128 166.325, 132.966 158.787, 131.742 154.250 C 130.518 149.713, 129.228 146, 128.875 146 C 128.522 146, 125.376 149.938, 121.883 154.750 M 121.751 210.613 C 118.589 211.379, 112.289 212.375, 107.751 212.828 C 99.769 213.624, 99.598 213.694, 102.500 214.988 C 104.150 215.723, 108.650 216.497, 112.500 216.708 C 118.865 217.057, 119.977 216.813, 124.750 214.025 C 127.638 212.339, 130 210.519, 130 209.980 C 130 208.776, 129.034 208.850, 121.751 210.613" stroke="none" fill="#f9eff5" fill-rule="evenodd"/><path d="M 145.722 21.088 C 136.895 22.021, 121.850 25.796, 111.500 29.676 C 91.610 37.131, 74.788 48.113, 58.991 63.957 C 37.469 85.543, 25.140 108.155, 18.892 137.500 C 15.791 152.062, 15.833 178.247, 18.981 193 C 25.126 221.804, 37.838 245.034, 58.929 266.003 C 76.371 283.344, 95.553 295.222, 117.500 302.273 C 136.971 308.529, 143.244 309.471, 165.500 309.486 C 187.738 309.502, 196.850 308.070, 215.913 301.567 C 268.150 283.748, 306.732 237.240, 314.026 183.299 C 315.782 170.320, 314.792 146.048, 312.057 135 C 302.602 96.806, 282.270 67.190, 250.961 46.009 C 220.351 25.300, 185.021 16.934, 145.722 21.088 M 172.706 101.627 C 172.318 102.015, 171.994 118.346, 171.987 137.917 L 171.974 173.500 164.737 178.141 C 152.324 186.101, 152.601 186.060, 152.095 180 C 151.935 178.075, 150.226 171.100, 148.299 164.500 C 142.281 143.897, 142.024 142.688, 142.012 134.968 C 142.005 130.825, 142.699 124.975, 143.554 121.968 C 144.409 118.961, 145.342 115.593, 145.626 114.484 C 146.040 112.870, 145.227 112.023, 141.545 110.234 C 139.016 109.005, 136.380 108, 135.688 108 C 134.996 108, 132.946 111.007, 131.134 114.683 C 126.697 123.680, 116.144 140.468, 107.877 151.680 C 99.780 162.661, 85.264 177.917, 68.977 192.562 L 57.055 203.282 60.184 207.232 C 61.905 209.405, 63.895 211.406, 64.607 211.680 C 65.320 211.953, 67.524 210.939, 69.506 209.427 L 73.110 206.678 76.267 210.507 C 92.557 230.270, 116.220 235.729, 133.782 223.774 C 138.890 220.297, 145.316 212.425, 148.744 205.444 C 150.445 201.980, 152.213 199.951, 154.361 199.001 C 156.085 198.237, 160.467 195.900, 164.098 193.807 C 167.729 191.713, 170.983 190, 171.328 190 C 171.674 190, 172.079 198.662, 172.228 209.250 L 172.500 228.500 180 228.500 L 187.500 228.500 187.768 203.046 C 188.025 178.539, 188.116 177.506, 190.192 175.296 C 191.378 174.033, 192.696 173, 193.120 173 C 193.545 173, 203.870 184.588, 216.064 198.750 C 228.259 212.912, 239.333 225.512, 240.674 226.750 C 242.843 228.752, 244.151 229, 252.556 229 C 258.504 229, 262 228.610, 262 227.947 C 262 227.367, 249.828 213.450, 234.950 197.018 C 220.073 180.587, 206.990 165.986, 205.878 164.572 L 203.855 162 206.177 159.118 C 207.455 157.532, 213.647 150.670, 219.938 143.868 C 251.116 110.156, 258 102.516, 258 101.629 C 258 101.283, 254.004 101, 249.120 101 L 240.240 101 231.036 111.512 C 225.975 117.293, 221.304 122.581, 220.656 123.262 C 220.009 123.943, 214.570 130.125, 208.569 137 C 202.569 143.875, 195.599 151.655, 193.080 154.289 L 188.500 159.079 188 130.289 L 187.500 101.500 180.456 101.210 C 176.582 101.051, 173.095 101.239, 172.706 101.627 M 121.883 154.750 C 114.339 165.144, 105.238 175.550, 94.121 186.493 C 89.654 190.889, 86 195.009, 86 195.649 C 86 199.226, 104.689 201.255, 116.201 198.929 C 122.304 197.696, 135.788 193.420, 138 192.017 C 140.257 190.585, 139.598 181.050, 136.547 171 C 135.128 166.325, 132.966 158.787, 131.742 154.250 C 130.518 149.713, 129.228 146, 128.875 146 C 128.522 146, 125.376 149.938, 121.883 154.750 M 121.751 210.613 C 118.589 211.379, 112.289 212.375, 107.751 212.828 C 99.769 213.624, 99.598 213.694, 102.500 214.988 C 104.150 215.723, 108.650 216.497, 112.500 216.708 C 118.865 217.057, 119.977 216.813, 124.750 214.025 C 127.638 212.339, 130 210.519, 130 209.980 C 130 208.776, 129.034 208.850, 121.751 210.613" stroke="none" fill="#ab0554" fill-rule="evenodd"/></svg>