<svg viewBox="0 0 512 512" xmlns="http://www.w3.org/2000/svg" fill-rule="evenodd" clip-rule="evenodd" stroke-linejoin="round" stroke-miterlimit="2"><path d="M465.42 30.092c-7.322 17.802-16.791 33.584-27.27 47.725C391.94 30.723 327.295.8 255.96.8 115.815.8 1.3 114.684 1.3 255.334c0 73.482 31.438 139.64 81.31 186.355l9.469 8.46c44.063 37.245 101.384 59.845 163.755 59.845 133.833 0 244.055-104.414 253.524-236.226 7.576-64.013-11.868-145.953-43.937-243.676zM119.478 443.836c-7.323 9.47-20.96 10.48-30.428 3.156-9.47-7.323-10.48-20.958-3.157-30.428 7.323-9.469 20.959-10.48 30.428-3.156 8.964 7.323 10.48 20.959 3.157 30.428zm344.429-76.133c-62.498 83.456-196.835 55.174-282.437 59.34 0 0-15.277 1.01-30.428 3.157 0 0 5.808-2.651 13.13-5.303 60.351-20.958 88.76-25.251 125.5-44.063 68.81-35.226 137.494-112.37 151.256-192.164-26.262 76.638-106.056 142.797-178.528 169.564-49.871 18.433-139.64 36.235-139.64 36.235l-3.661-2.146c-60.856-29.923-63.002-162.24 48.356-204.789 48.862-18.938 95.072-8.46 148.1-20.959 56.184-13.13 121.333-55.174 147.468-110.222 29.165 88.759 64.896 226.253.884 311.35z" fill="#6cb52d" fill-rule="nonzero"/><path d="M119.477 443.836c-7.323 9.47-20.96 10.48-30.428 3.156-9.47-7.323-10.48-20.958-3.157-30.428 7.323-9.469 20.959-10.48 30.428-3.156 8.964 7.323 10.48 20.959 3.157 30.428zM463.906 367.703c-62.498 83.456-196.835 55.174-282.437 59.34 0 0-15.277 1.01-30.428 3.157 0 0 5.808-2.651 13.13-5.303 60.351-20.958 88.76-25.251 125.5-44.063 68.81-35.226 137.494-112.37 151.256-192.164-26.262 76.638-106.056 142.797-178.528 169.564-49.871 18.433-139.64 36.235-139.64 36.235l-3.661-2.146c-60.856-29.923-63.002-162.24 48.356-204.789 48.862-18.938 95.072-8.46 148.1-20.959 56.184-13.13 121.333-55.174 147.468-110.222 29.165 88.759 64.896 226.253.884 311.35z" fill="#fff" fill-rule="nonzero"/></svg>